<mxfile host="app.diagrams.net" modified="2024-04-13T01:44:13.868Z" agent="Mozilla/5.0 (Windows NT 10.0; Win64; x64) AppleWebKit/537.36 (KHTML, like Gecko) Chrome/123.0.0.0 Safari/537.36 Edg/123.0.0.0" etag="wkmsXWNOI1ScfkPG6uIo" version="24.0.7" type="device">
  <diagram name="Page-1" id="BfwmSZ3A_p3pQfuB0MDl">
    <mxGraphModel dx="2026" dy="1153" grid="1" gridSize="10" guides="1" tooltips="1" connect="1" arrows="1" fold="1" page="1" pageScale="1" pageWidth="850" pageHeight="1100" math="0" shadow="0">
      <root>
        <mxCell id="0" />
        <mxCell id="1" parent="0" />
        <mxCell id="fpPPiV28GK75tEFA6FlT-64" value="" style="rounded=0;whiteSpace=wrap;html=1;movable=1;resizable=1;rotatable=1;deletable=1;editable=1;locked=0;connectable=1;" vertex="1" parent="1">
          <mxGeometry x="140" y="80" width="640" height="420" as="geometry" />
        </mxCell>
        <mxCell id="fpPPiV28GK75tEFA6FlT-13" style="edgeStyle=orthogonalEdgeStyle;rounded=0;orthogonalLoop=1;jettySize=auto;html=1;exitX=0.5;exitY=0;exitDx=0;exitDy=0;entryX=0.5;entryY=1;entryDx=0;entryDy=0;movable=0;resizable=0;rotatable=0;deletable=0;editable=0;locked=1;connectable=0;" edge="1" parent="1" source="fpPPiV28GK75tEFA6FlT-4" target="fpPPiV28GK75tEFA6FlT-9">
          <mxGeometry relative="1" as="geometry" />
        </mxCell>
        <mxCell id="fpPPiV28GK75tEFA6FlT-14" style="edgeStyle=orthogonalEdgeStyle;rounded=0;orthogonalLoop=1;jettySize=auto;html=1;exitX=0.5;exitY=0;exitDx=0;exitDy=0;entryX=0.5;entryY=0;entryDx=0;entryDy=0;movable=0;resizable=0;rotatable=0;deletable=0;editable=0;locked=1;connectable=0;" edge="1" parent="1" source="fpPPiV28GK75tEFA6FlT-4" target="fpPPiV28GK75tEFA6FlT-7">
          <mxGeometry relative="1" as="geometry" />
        </mxCell>
        <mxCell id="fpPPiV28GK75tEFA6FlT-4" value="BRAM LineBuffer1" style="rounded=0;whiteSpace=wrap;html=1;movable=0;resizable=0;rotatable=0;deletable=0;editable=0;locked=1;connectable=0;" vertex="1" parent="1">
          <mxGeometry x="160" y="240" width="120" height="40" as="geometry" />
        </mxCell>
        <mxCell id="fpPPiV28GK75tEFA6FlT-51" style="edgeStyle=orthogonalEdgeStyle;rounded=0;orthogonalLoop=1;jettySize=auto;html=1;exitX=1;exitY=0.5;exitDx=0;exitDy=0;entryX=0.25;entryY=0;entryDx=0;entryDy=0;movable=0;resizable=0;rotatable=0;deletable=0;editable=0;locked=1;connectable=0;" edge="1" parent="1" source="fpPPiV28GK75tEFA6FlT-5" target="fpPPiV28GK75tEFA6FlT-46">
          <mxGeometry relative="1" as="geometry" />
        </mxCell>
        <mxCell id="fpPPiV28GK75tEFA6FlT-5" value="row2 registers" style="rounded=0;whiteSpace=wrap;html=1;movable=0;resizable=0;rotatable=0;deletable=0;editable=0;locked=1;connectable=0;" vertex="1" parent="1">
          <mxGeometry x="320" y="320" width="120" height="40" as="geometry" />
        </mxCell>
        <mxCell id="fpPPiV28GK75tEFA6FlT-52" style="edgeStyle=orthogonalEdgeStyle;rounded=0;orthogonalLoop=1;jettySize=auto;html=1;exitX=1;exitY=0.5;exitDx=0;exitDy=0;entryX=0.5;entryY=0;entryDx=0;entryDy=0;movable=0;resizable=0;rotatable=0;deletable=0;editable=0;locked=1;connectable=0;" edge="1" parent="1" source="fpPPiV28GK75tEFA6FlT-7" target="fpPPiV28GK75tEFA6FlT-46">
          <mxGeometry relative="1" as="geometry" />
        </mxCell>
        <mxCell id="fpPPiV28GK75tEFA6FlT-7" value="row1 registers" style="rounded=0;whiteSpace=wrap;html=1;movable=0;resizable=0;rotatable=0;deletable=0;editable=0;locked=1;connectable=0;" vertex="1" parent="1">
          <mxGeometry x="320" y="240" width="120" height="40" as="geometry" />
        </mxCell>
        <mxCell id="fpPPiV28GK75tEFA6FlT-53" style="edgeStyle=orthogonalEdgeStyle;rounded=0;orthogonalLoop=1;jettySize=auto;html=1;exitX=1;exitY=0.5;exitDx=0;exitDy=0;entryX=0.75;entryY=0;entryDx=0;entryDy=0;movable=0;resizable=0;rotatable=0;deletable=0;editable=0;locked=1;connectable=0;" edge="1" parent="1" source="fpPPiV28GK75tEFA6FlT-8" target="fpPPiV28GK75tEFA6FlT-46">
          <mxGeometry relative="1" as="geometry" />
        </mxCell>
        <mxCell id="fpPPiV28GK75tEFA6FlT-8" value="row0 registers" style="rounded=0;whiteSpace=wrap;html=1;movable=0;resizable=0;rotatable=0;deletable=0;editable=0;locked=1;connectable=0;" vertex="1" parent="1">
          <mxGeometry x="320" y="160" width="120" height="40" as="geometry" />
        </mxCell>
        <mxCell id="fpPPiV28GK75tEFA6FlT-15" style="edgeStyle=orthogonalEdgeStyle;rounded=0;orthogonalLoop=1;jettySize=auto;html=1;exitX=0.5;exitY=0;exitDx=0;exitDy=0;entryX=0.5;entryY=0;entryDx=0;entryDy=0;movable=0;resizable=0;rotatable=0;deletable=0;editable=0;locked=1;connectable=0;" edge="1" parent="1" source="fpPPiV28GK75tEFA6FlT-9" target="fpPPiV28GK75tEFA6FlT-8">
          <mxGeometry relative="1" as="geometry" />
        </mxCell>
        <mxCell id="fpPPiV28GK75tEFA6FlT-9" value="BRAM LineBuffer0" style="rounded=0;whiteSpace=wrap;html=1;movable=0;resizable=0;rotatable=0;deletable=0;editable=0;locked=1;connectable=0;" vertex="1" parent="1">
          <mxGeometry x="160" y="160" width="120" height="40" as="geometry" />
        </mxCell>
        <mxCell id="fpPPiV28GK75tEFA6FlT-18" style="edgeStyle=orthogonalEdgeStyle;rounded=0;orthogonalLoop=1;jettySize=auto;html=1;exitX=1;exitY=0.5;exitDx=0;exitDy=0;entryX=0.5;entryY=1;entryDx=0;entryDy=0;movable=0;resizable=0;rotatable=0;deletable=0;editable=0;locked=1;connectable=0;" edge="1" parent="1" target="fpPPiV28GK75tEFA6FlT-4">
          <mxGeometry relative="1" as="geometry">
            <mxPoint x="39.99999999999977" y="300" as="sourcePoint" />
          </mxGeometry>
        </mxCell>
        <mxCell id="fpPPiV28GK75tEFA6FlT-19" style="edgeStyle=orthogonalEdgeStyle;rounded=0;orthogonalLoop=1;jettySize=auto;html=1;exitX=1;exitY=0.5;exitDx=0;exitDy=0;entryX=0.5;entryY=0;entryDx=0;entryDy=0;movable=0;resizable=0;rotatable=0;deletable=0;editable=0;locked=1;connectable=0;" edge="1" parent="1" target="fpPPiV28GK75tEFA6FlT-5">
          <mxGeometry relative="1" as="geometry">
            <mxPoint x="39.99999999999977" y="300" as="sourcePoint" />
          </mxGeometry>
        </mxCell>
        <mxCell id="fpPPiV28GK75tEFA6FlT-54" style="edgeStyle=orthogonalEdgeStyle;rounded=0;orthogonalLoop=1;jettySize=auto;html=1;exitX=1;exitY=0.5;exitDx=0;exitDy=0;entryX=0.5;entryY=1;entryDx=0;entryDy=0;movable=0;resizable=0;rotatable=0;deletable=0;editable=0;locked=1;connectable=0;" edge="1" parent="1" source="fpPPiV28GK75tEFA6FlT-20" target="fpPPiV28GK75tEFA6FlT-46">
          <mxGeometry relative="1" as="geometry" />
        </mxCell>
        <mxCell id="fpPPiV28GK75tEFA6FlT-20" value="KernelBuffer3x3&lt;div&gt;(x9 BRAM)&lt;/div&gt;" style="rounded=0;whiteSpace=wrap;html=1;movable=0;resizable=0;rotatable=0;deletable=0;editable=0;locked=1;connectable=0;" vertex="1" parent="1">
          <mxGeometry x="200" y="400" width="200" height="80" as="geometry" />
        </mxCell>
        <mxCell id="fpPPiV28GK75tEFA6FlT-21" value="" style="endArrow=classic;html=1;rounded=0;entryX=0;entryY=0.5;entryDx=0;entryDy=0;movable=0;resizable=0;rotatable=0;deletable=0;editable=0;locked=1;connectable=0;" edge="1" parent="1" target="fpPPiV28GK75tEFA6FlT-20">
          <mxGeometry width="50" height="50" relative="1" as="geometry">
            <mxPoint x="40" y="440" as="sourcePoint" />
            <mxPoint x="90" y="390" as="targetPoint" />
          </mxGeometry>
        </mxCell>
        <mxCell id="fpPPiV28GK75tEFA6FlT-62" style="edgeStyle=orthogonalEdgeStyle;rounded=0;orthogonalLoop=1;jettySize=auto;html=1;exitX=1;exitY=0.5;exitDx=0;exitDy=0;movable=0;resizable=0;rotatable=0;deletable=0;editable=0;locked=1;connectable=0;" edge="1" parent="1" source="fpPPiV28GK75tEFA6FlT-26">
          <mxGeometry relative="1" as="geometry">
            <mxPoint x="880" y="340" as="targetPoint" />
          </mxGeometry>
        </mxCell>
        <mxCell id="fpPPiV28GK75tEFA6FlT-26" value="sum buffer registers" style="rounded=0;whiteSpace=wrap;html=1;movable=0;resizable=0;rotatable=0;deletable=0;editable=0;locked=1;connectable=0;" vertex="1" parent="1">
          <mxGeometry x="640" y="320" width="120" height="40" as="geometry" />
        </mxCell>
        <mxCell id="fpPPiV28GK75tEFA6FlT-58" style="edgeStyle=orthogonalEdgeStyle;rounded=0;orthogonalLoop=1;jettySize=auto;html=1;exitX=0.5;exitY=0;exitDx=0;exitDy=0;entryX=0.5;entryY=1;entryDx=0;entryDy=0;movable=0;resizable=0;rotatable=0;deletable=0;editable=0;locked=1;connectable=0;" edge="1" parent="1" source="fpPPiV28GK75tEFA6FlT-27" target="fpPPiV28GK75tEFA6FlT-26">
          <mxGeometry relative="1" as="geometry" />
        </mxCell>
        <mxCell id="fpPPiV28GK75tEFA6FlT-27" value="Tree Adder&lt;div&gt;(Combinational logic)&lt;/div&gt;" style="rounded=0;whiteSpace=wrap;html=1;movable=0;resizable=0;rotatable=0;deletable=0;editable=0;locked=1;connectable=0;" vertex="1" parent="1">
          <mxGeometry x="640" y="380" width="120" height="40" as="geometry" />
        </mxCell>
        <mxCell id="fpPPiV28GK75tEFA6FlT-43" value="Input Image&lt;div&gt;Data&lt;/div&gt;" style="text;html=1;align=center;verticalAlign=middle;whiteSpace=wrap;rounded=0;movable=0;resizable=0;rotatable=0;deletable=0;editable=0;locked=1;connectable=0;" vertex="1" parent="1">
          <mxGeometry x="50" y="270" width="70" height="30" as="geometry" />
        </mxCell>
        <mxCell id="fpPPiV28GK75tEFA6FlT-44" value="Kernel Data" style="text;html=1;align=center;verticalAlign=middle;resizable=0;points=[];autosize=1;strokeColor=none;fillColor=none;movable=0;rotatable=0;deletable=0;editable=0;locked=1;connectable=0;" vertex="1" parent="1">
          <mxGeometry x="35" y="408" width="90" height="30" as="geometry" />
        </mxCell>
        <mxCell id="fpPPiV28GK75tEFA6FlT-55" style="edgeStyle=orthogonalEdgeStyle;rounded=0;orthogonalLoop=1;jettySize=auto;html=1;exitX=1;exitY=0.25;exitDx=0;exitDy=0;entryX=0;entryY=0.25;entryDx=0;entryDy=0;movable=0;resizable=0;rotatable=0;deletable=0;editable=0;locked=1;connectable=0;" edge="1" parent="1" source="fpPPiV28GK75tEFA6FlT-46" target="fpPPiV28GK75tEFA6FlT-27">
          <mxGeometry relative="1" as="geometry" />
        </mxCell>
        <mxCell id="fpPPiV28GK75tEFA6FlT-56" style="edgeStyle=orthogonalEdgeStyle;rounded=0;orthogonalLoop=1;jettySize=auto;html=1;exitX=1;exitY=0.5;exitDx=0;exitDy=0;entryX=0;entryY=0.5;entryDx=0;entryDy=0;movable=0;resizable=0;rotatable=0;deletable=0;editable=0;locked=1;connectable=0;" edge="1" parent="1" source="fpPPiV28GK75tEFA6FlT-46" target="fpPPiV28GK75tEFA6FlT-27">
          <mxGeometry relative="1" as="geometry" />
        </mxCell>
        <mxCell id="fpPPiV28GK75tEFA6FlT-57" style="edgeStyle=orthogonalEdgeStyle;rounded=0;orthogonalLoop=1;jettySize=auto;html=1;exitX=1;exitY=0.75;exitDx=0;exitDy=0;entryX=0;entryY=0.75;entryDx=0;entryDy=0;movable=0;resizable=0;rotatable=0;deletable=0;editable=0;locked=1;connectable=0;" edge="1" parent="1" source="fpPPiV28GK75tEFA6FlT-46" target="fpPPiV28GK75tEFA6FlT-27">
          <mxGeometry relative="1" as="geometry" />
        </mxCell>
        <mxCell id="fpPPiV28GK75tEFA6FlT-46" value="&lt;div&gt;Multiplier&lt;/div&gt;&lt;div&gt;(Combinational logic)&lt;/div&gt;" style="rounded=0;whiteSpace=wrap;html=1;movable=0;resizable=0;rotatable=0;deletable=0;editable=0;locked=1;connectable=0;" vertex="1" parent="1">
          <mxGeometry x="480" y="380" width="120" height="40" as="geometry" />
        </mxCell>
        <mxCell id="fpPPiV28GK75tEFA6FlT-63" value="Output Data" style="text;html=1;align=center;verticalAlign=middle;whiteSpace=wrap;rounded=0;movable=0;resizable=0;rotatable=0;deletable=0;editable=0;locked=1;connectable=0;" vertex="1" parent="1">
          <mxGeometry x="790" y="310" width="70" height="30" as="geometry" />
        </mxCell>
        <mxCell id="fpPPiV28GK75tEFA6FlT-65" value="&lt;b&gt;&lt;font style=&quot;font-size: 15px;&quot;&gt;Conv2D3x3&lt;/font&gt;&lt;/b&gt;" style="text;html=1;align=center;verticalAlign=middle;whiteSpace=wrap;rounded=0;movable=0;resizable=0;rotatable=0;deletable=0;editable=0;locked=1;connectable=0;" vertex="1" parent="1">
          <mxGeometry x="425" y="90" width="60" height="30" as="geometry" />
        </mxCell>
      </root>
    </mxGraphModel>
  </diagram>
</mxfile>
